<?xml version="1.0" standalone="no"?>
<!DOCTYPE svg PUBLIC "-//W3C//DTD SVG 20010904//EN"
 "http://www.w3.org/TR/2001/REC-SVG-20010904/DTD/svg10.dtd">
<svg version="1.0" xmlns="http://www.w3.org/2000/svg"
 width="1024.000000pt" height="1024.000000pt" viewBox="0 0 1024.000000 1024.000000"
 preserveAspectRatio="xMidYMid meet">
<metadata>
Created by potrace 1.11, written by Peter Selinger 2001-2013
</metadata>
<g transform="translate(0.000000,1024.000000) scale(0.100000,-0.100000)"
fill="#000000" stroke="none">
<path d="M8045 8387 c-61 -46 -235 -219 -385 -385 l-85 -93 -155 121 c-190
149 -293 218 -390 264 -145 69 -258 81 -347 40 -87 -42 -172 -166 -193 -286
-26 -140 46 -327 159 -409 31 -24 58 -33 111 -40 95 -12 130 -31 130 -70 0
-68 -50 -120 -230 -239 -146 -97 -273 -218 -316 -300 -30 -59 -33 -92 -23
-310 4 -78 2 -89 -23 -130 -15 -25 -57 -79 -94 -120 -37 -41 -81 -104 -98
-140 -27 -57 -31 -75 -30 -145 2 -96 21 -150 61 -167 16 -6 122 -14 249 -18
280 -9 296 -15 348 -118 39 -77 69 -106 127 -124 90 -26 234 44 315 154 59 80
85 155 91 259 7 116 -13 204 -94 404 -75 187 -103 287 -103 366 0 124 69 99
205 -75 74 -95 131 -151 162 -161 33 -9 75 19 114 79 81 123 108 278 90 510
-17 226 -15 339 9 385 22 44 92 99 176 139 77 35 199 39 254 7 79 -47 92 -126
41 -244 -44 -99 -42 -102 127 -111 124 -7 157 -15 195 -48 26 -23 21 -47 -17
-80 -36 -32 -88 -52 -201 -77 -96 -22 -164 -60 -188 -108 -18 -35 -19 -44 -8
-93 15 -64 63 -140 110 -171 47 -32 129 -31 229 3 41 14 157 67 256 119 221
114 250 123 310 97 88 -39 128 -126 128 -277 0 -246 -127 -489 -295 -568 -119
-56 -184 -57 -477 -12 -52 8 -133 15 -179 15 l-84 0 -41 -43 c-52 -54 -107
-147 -189 -319 -110 -232 -138 -259 -312 -302 -171 -43 -251 -91 -452 -269
-99 -89 -206 -166 -307 -222 -145 -80 -160 -118 -155 -370 4 -152 5 -163 33
-219 21 -42 61 -90 146 -175 83 -82 121 -127 130 -154 11 -37 10 -43 -24 -112
-45 -91 -127 -170 -228 -219 -179 -88 -257 -63 -348 112 -110 212 -173 229
-407 111 -67 -34 -148 -82 -180 -108 -48 -39 -61 -56 -78 -106 -25 -73 -52
-120 -168 -294 -156 -235 -211 -373 -210 -536 0 -109 10 -150 74 -286 44 -95
78 -206 94 -310 7 -48 62 -110 133 -150 131 -73 165 -122 183 -262 18 -131 42
-165 129 -181 19 -3 106 -15 192 -26 124 -16 163 -17 183 -8 54 24 115 154
115 243 0 91 -106 318 -270 580 -52 83 -112 185 -135 229 -36 71 -40 85 -40
155 0 65 5 86 34 148 39 84 80 128 109 119 30 -10 35 -29 42 -186 6 -123 12
-159 38 -236 62 -187 168 -364 303 -511 113 -122 138 -170 149 -282 9 -98 24
-136 70 -175 45 -37 101 -49 216 -44 78 4 111 10 148 27 135 66 94 204 -140
469 -108 124 -161 212 -210 346 -63 177 -82 385 -47 509 21 77 71 132 128 142
66 12 125 53 236 165 126 128 277 325 341 447 58 109 144 325 237 593 160 460
231 626 332 776 70 104 184 216 299 293 253 169 428 215 875 231 272 9 371 23
433 60 40 24 53 55 39 93 -11 32 -40 63 -150 160 -42 38 -77 75 -77 82 0 23
44 28 144 16 146 -17 230 -14 276 9 70 36 197 204 221 294 30 113 -64 218
-406 451 -403 276 -666 485 -838 665 -115 121 -117 131 -52 201 28 30 45 57
45 72 0 162 -340 480 -537 504 -45 5 -52 2 -108 -40z"/>
<path d="M9105 8241 c-104 -47 -255 -305 -255 -433 1 -113 112 -221 208 -203
83 16 271 132 345 214 63 71 91 132 95 212 6 106 -42 177 -147 214 -62 22
-195 20 -246 -4z"/>
<path d="M2753 7355 c-67 -19 -119 -52 -200 -127 -162 -150 -327 -163 -593
-46 -200 88 -273 116 -337 129 -89 18 -128 4 -214 -79 -113 -110 -188 -247
-299 -547 -62 -168 -185 -451 -236 -540 -138 -246 -144 -278 -77 -418 23 -47
64 -121 92 -165 65 -100 153 -295 186 -408 63 -216 53 -541 -26 -848 -11 -43
-130 -380 -265 -748 l-245 -668 71 -158 c105 -228 161 -305 225 -305 42 1 77
34 121 117 79 147 159 435 274 981 87 414 170 774 187 815 l14 35 24 -28 c40
-45 48 -97 42 -267 -7 -190 -23 -296 -92 -610 -90 -412 -150 -747 -161 -900
-9 -119 5 -173 82 -312 84 -149 114 -223 126 -310 16 -115 55 -181 131 -220
54 -27 128 -21 228 21 88 37 185 95 193 117 7 19 -48 129 -175 346 -186 317
-250 460 -252 565 -2 48 2 67 19 90 46 62 106 66 148 10 19 -26 21 -40 18
-139 -2 -105 -1 -112 28 -167 79 -148 353 -400 470 -431 68 -18 133 -81 186
-180 61 -115 111 -140 278 -140 175 0 258 33 264 105 7 83 -47 217 -155 379
-50 77 -104 139 -223 256 -176 173 -201 210 -208 310 -12 175 74 233 183 123
35 -35 65 -84 122 -202 94 -196 162 -298 256 -388 90 -85 136 -105 176 -76 27
21 39 62 40 139 1 26 9 51 23 69 18 24 26 27 63 23 23 -3 86 -26 141 -50 194
-89 226 -77 240 92 11 126 8 124 214 116 149 -7 169 -6 184 9 20 21 16 37 -35
131 -57 103 -52 152 22 224 86 83 259 168 603 294 270 100 391 148 479 192
254 128 337 243 337 469 0 50 -5 107 -11 128 -15 54 -71 112 -126 131 -104 36
-297 13 -539 -64 -291 -93 -431 -117 -739 -131 -338 -14 -405 -27 -605 -119
-218 -101 -331 -124 -600 -125 -233 0 -264 8 -341 84 -64 65 -109 148 -109
203 0 59 33 111 130 209 144 145 228 267 216 314 -10 39 -99 164 -197 275
-126 144 -162 194 -200 275 -72 153 -37 258 159 468 73 79 131 151 148 185 28
54 29 63 28 182 -2 197 -27 275 -103 314 -14 8 -116 42 -226 76 -338 104 -405
136 -405 189 0 142 614 284 1000 231 140 -19 314 -57 525 -115 235 -64 330
-79 440 -70 165 14 330 56 880 225 182 56 364 108 405 117 114 24 233 14 420
-35 205 -54 347 -82 409 -82 45 0 51 3 51 20 0 36 -30 69 -114 124 -101 67
-198 116 -342 172 -340 133 -428 132 -989 -12 -307 -78 -433 -97 -645 -97
-247 0 -362 26 -715 163 -229 89 -391 117 -502 85z"/>
<path d="M4758 6590 c-167 -12 -343 -44 -528 -96 -204 -56 -270 -83 -350 -142
-80 -60 -127 -120 -224 -287 -137 -237 -204 -288 -403 -306 -130 -12 -166 -22
-193 -56 -22 -28 -28 -110 -10 -142 15 -29 78 -49 191 -61 175 -19 260 -47
274 -90 17 -53 -51 -80 -226 -90 -204 -12 -252 -30 -265 -96 -5 -26 0 -47 20
-87 36 -72 75 -97 176 -108 125 -14 163 -42 196 -142 24 -73 74 -146 171 -248
102 -107 157 -143 254 -168 257 -66 786 -50 1115 34 289 73 534 237 622 414
33 68 37 83 37 155 0 70 -4 90 -31 146 -40 85 -83 130 -122 130 -39 0 -123
-45 -302 -162 -187 -123 -293 -180 -407 -218 -183 -61 -323 -50 -508 40 -111
54 -175 102 -175 130 0 11 12 28 27 37 25 16 58 18 343 18 387 0 370 -5 370
116 0 77 -2 82 -31 111 l-30 31 -132 -6 c-73 -3 -197 -17 -277 -31 -164 -29
-237 -32 -265 -12 -19 14 -19 15 0 37 31 35 154 87 272 115 264 64 302 74 356
94 31 12 73 37 93 56 32 29 36 38 30 66 -8 40 -51 96 -83 109 -45 17 -99 9
-299 -42 -224 -57 -359 -74 -370 -45 -34 89 239 292 465 346 117 28 220 -3
433 -131 162 -97 223 -122 308 -123 116 -2 190 50 350 247 87 106 119 193 90
246 -10 20 -122 98 -185 129 -132 65 -488 103 -777 82z"/>
</g>
</svg>
