<svg
   xmlns="http://www.w3.org/2000/svg"
   version="1.1"
   viewBox="0 0 280 200">
  <g transform="translate(-196.058,-206.24366)">
    <path
       style="display:inline;fill:#ffffff;fill-opacity:1;fill-rule:evenodd;stroke:none;stroke-width:1px;stroke-linecap:butt;stroke-linejoin:miter;stroke-opacity:1"
       d="m 133.84521,73.741312 11.11168,3.030458 20.20305,-15.152288 15.65737,-11.616755 27.27411,22.728433 -4.04061,20.20305 -23.2335,6.060916 -13.63706,21.213204 -10.10153,25.25381 -14.64721,7.07107 -13.63706,-9.59645 -15.15229,0.50508 -42.931482,7.07107 -22.728432,-4.04061 -3.535534,-25.75889 -8.08122,-45.456869 28.284271,-5.050763 23.738585,5.050763 26.263962,-6.565992 z"
       transform="translate(196.058,206.24366)" />
    <path
       style="fill:#000000"
       d="m 230.22897,396.67283 c -0.825,-0.825 -1.5,-2.58672 -1.5,-3.91496 0,-1.32823 -1.20485,-4.36445 -2.67745,-6.74716 -2.50456,-4.05247 -2.58233,-4.90953 -1.2044,-13.27254 0.81019,-4.91719 2.10841,-11.47159 2.88494,-14.56534 1.89899,-7.5657 2.67489,-15.83173 1.7197,-18.3209 -0.4299,-1.1203 -1.05051,-1.76805 -1.37913,-1.43943 -0.32862,0.32862 -2.32271,8.98726 -4.43132,19.24141 -5.13611,24.97693 -8.35362,29.65557 -13.12206,19.08103 l -2.33941,-5.18788 4.1629,-11.37461 c 2.28959,-6.25604 5.20728,-14.18712 6.48376,-17.62462 1.30468,-3.51347 2.33872,-9.62521 2.36166,-13.95868 0.034,-6.41661 -0.88251,-8.95219 -4.23045,-15.7599 0,0 -3.87744,-5.57263 -4.00339,-8.14051 -0.1205,-1.90758 3.06589,-6.65854 3.06589,-6.65854 1.73132,-3.7601 4.31119,-9.61279 5.50582,-13.1144 2.67179,-7.83133 6.58224,-12.99297 9.84346,-12.99297 1.35249,0 4.66426,1.125 7.35948,2.5 6.66695,3.40122 11.40294,3.20389 15,-0.625 3.75121,-3.99298 8.0131,-3.99298 17.5,0 9.10621,3.83275 16.87459,3.99987 29.0532,0.625 4.96185,-1.375 10.55891,-2.5 12.4379,-2.5 6.63263,0 21.672,7.25356 19.51391,9.41165 -0.39664,0.39665 -4.3875,-0.25576 -8.86857,-1.44979 -8.0319,-2.1402 -8.27757,-2.1305 -17.32942,0.68434 -22.41836,6.97139 -22.94211,7.03554 -33.08252,4.05219 -5.04449,-1.48412 -11.74706,-2.69839 -14.89462,-2.69839 -7.19946,0 -16.31556,2.24912 -18.16928,4.48272 -1.5724,1.89463 -0.007,2.786 10.0894,5.74416 5.41489,1.58656 5.63931,1.84548 6.00796,6.93182 0.3359,4.63432 -0.16339,5.83007 -4.0625,9.72917 -5.85661,5.85662 -5.73918,9.26447 0.55454,16.09235 2.75,2.9834 5,6.18148 5,7.10687 0,0.92538 -2.08045,3.81309 -4.62323,6.41712 0,0 -3.22084,2.53322 -3.36055,4.73462 -0.0911,1.43524 1.3371,3.44309 1.3371,3.44309 2.34304,3.10306 3.32425,3.43121 9.93573,3.32288 4.95177,-0.0811 8.95493,-0.99519 12.31744,-2.8125 3.66768,-1.98224 7.16004,-2.6923 13.24181,-2.6923 5.00487,0 11.12406,-0.98527 15.5267,-2.5 11.74718,-4.04162 16.875,-2.9972 16.875,3.43707 0,7.15686 -2.98106,9.76701 -16.76289,14.67722 -14.58702,5.19708 -18.41832,8.05692 -15.99412,11.93867 2.24526,3.59524 1.93917,3.93038 -3.18049,3.48229 -4.10975,-0.35969 -4.69213,-0.0718 -4.72504,2.33563 -0.0551,4.03136 -1.17444,4.53618 -5.31282,2.39614 -4.01959,-2.07861 -5.27464,-1.61669 -5.27464,1.94132 0,5.91766 -7.19195,0.085 -10.66077,-8.64584 -2.53658,-6.38446 -6.83925,-7.56406 -6.83919,-1.875 2e-5,2.43074 1.28224,4.46058 4.378,6.93069 4.85113,3.87072 9.91894,12.65343 8.87342,15.378 -0.42144,1.09826 -2.53111,1.75381 -5.64402,1.75381 -4.18481,0 -5.23044,-0.54125 -6.61125,-3.42221 -0.90212,-1.88223 -2.76094,-3.61274 -4.13071,-3.84562 -1.36976,-0.23286 -4.60346,-2.65871 -7.18599,-5.39077 -3.59256,-3.80057 -4.52302,-5.65459 -3.96121,-7.89302 0.81628,-3.25231 -1.44175,-5.47491 -3.48567,-3.43098 -1.83416,1.83415 -0.52028,5.96741 4.5923,14.44654 2.4338,4.03642 4.42509,7.74301 4.42509,8.23686 0,1.06854 -5.70242,3.7992 -7.93382,3.7992 -0.8614,0 -2.24118,-0.675 -3.06618,-1.5 z m 99.5114,-0.65618 c -4.14983,-0.43707 -4.65244,-0.88628 -5,-4.46868 -0.28226,-2.90929 -1.3129,-4.42462 -3.8239,-5.62215 -2.17637,-1.03795 -3.45375,-2.64622 -3.48179,-4.3837 -0.0244,-1.50935 -0.84818,-4.15054 -1.83071,-5.86929 -3.11315,-5.44588 -2.30468,-11.27864 2.5,-18.03652 2.40625,-3.38445 4.375,-6.88514 4.375,-7.77933 0,-0.89419 2.39062,-2.78902 5.3125,-4.21074 0,0 2.70931,-1.86403 5.84821,-1.87065 2.11149,0.46922 4.01428,4.90723 4.01428,4.90723 1.91243,3.38764 3.48887,3.57899 7.02038,2.11619 2.04623,-0.84757 4.46312,-2.92879 5.37086,-4.62493 1.51963,-2.83946 1.33473,-3.37225 -2.33289,-6.7221 -3.3739,-3.08159 -3.98334,-4.5185 -3.98334,-9.39182 0,-5.21628 0.37826,-5.95247 4.05038,-7.88297 2.2277,-1.17115 5.76632,-3.87282 7.86361,-6.00371 2.23761,-2.27348 5.74737,-4.23719 8.49412,-4.75249 4.16717,-0.78176 5.00208,-1.60437 7.60732,-7.49529 1.60952,-3.63943 3.74316,-6.93056 4.7414,-7.31362 0.99825,-0.38306 4.48723,-0.19725 7.75331,0.41292 4.49557,0.83986 6.79239,0.66775 9.45357,-0.7084 5.69174,-2.94332 8.453,-14.78945 4.25872,-18.2704 -1.73407,-1.43914 -2.91033,-1.18987 -8.12565,1.72195 -7.30553,4.07882 -10.53552,4.28905 -12.39906,0.807 -2.01682,-3.76846 -0.74943,-5.72369 4.32748,-6.67612 6.04959,-1.13491 6.09125,-4.4762 0.0558,-4.4762 -4.07727,0 -4.31222,-0.19951 -3.03827,-2.5799 2.80603,-5.24311 -3.07592,-8.03364 -8.67182,-4.11411 -2.6844,1.88022 -2.87668,2.70286 -2.2492,9.62283 0.48197,5.31531 0.14726,8.60894 -1.1249,11.06902 -2.29865,4.44509 -3.50673,4.40198 -6.94449,-0.24784 -5.26217,-7.11747 -6.56282,-3.04763 -2.18725,6.84408 1.82654,4.12918 2.37689,7.18172 1.8251,10.12297 -1.3391,7.13802 -9.72655,10.84382 -11.81557,5.22045 -0.90602,-2.43885 -1.93858,-2.8125 -7.77223,-2.8125 -6.47553,0 -6.74272,-0.13405 -7.13673,-3.58053 -0.29116,-2.54691 0.55666,-4.58881 2.93692,-7.07326 2.76378,-2.88477 3.19459,-4.18314 2.47504,-7.45927 -0.97792,-4.45237 1.62845,-8.1122 9.03855,-12.6919 4.92846,-3.04595 5.37437,-6.07004 0.89503,-6.07004 -4.02287,0 -7.43707,-6.94111 -5.68322,-11.55408 2.81619,-7.40712 8.73165,-7.40723 18.23872,-3.3e-4 l 5.83302,4.54445 5.3896,-5.87002 c 2.96428,-3.22851 6.06693,-5.87002 6.89477,-5.87002 5.32693,0 16.13169,10.61134 11.78666,13.08022 0,0 -1.57137,1.17581 -0.96306,2.05963 2.47832,3.60081 10.43055,10.36394 20.7548,17.23708 10.5314,7.01105 11.41484,8.83997 6.98833,14.46737 -2.32831,2.95996 -3.35882,3.34297 -7.5,2.78752 -5.64007,-0.75649 -5.9096,-0.23878 -1.62878,3.12851 4.95671,3.89895 2.1159,5.98967 -8.13857,5.98967 -9.66084,0 -15.16892,1.55291 -21.0774,5.94242 -5.47299,4.06597 -8.24394,8.80109 -12.24957,20.93258 -1.81601,5.5 -4.40877,12.25 -5.7617,15 -2.74217,5.57382 -10.65279,14.375 -12.92043,14.375 -5.89304,0 -4.63228,14.98093 1.83691,21.82713 7.5147,7.95263 7.31405,11.92287 -0.60255,11.92287 -4.01463,0 -5.50874,-1.66379 -5.50874,-6.13434 0,-1.19893 -1.40127,-3.49631 -3.11395,-5.10527 -4.27349,-4.01474 -8.26307,-12.66578 -7.85167,-17.02563 0.47404,-5.02373 -1.65807,-5.63943 -3.54185,-1.02279 -1.46913,3.60043 -1.22635,4.371 3.9384,12.49999 3.02722,4.76468 5.51867,10.09741 5.53656,11.85054 0.0304,2.97426 -2.09713,6.45353 -3.65499,5.97738 -0.37812,-0.11563 -2.76362,-0.42881 -5.3011,-0.69606 z m -49.65639,-60.85564 c -1.66099,-0.92027 -4.49745,-3.85347 -6.30324,-6.51821 -1.80579,-2.66473 -0.19165,-5.01849 -5.93682,-5.23056 -2.77745,-0.10252 -4.64693,-3.36738 -3.42023,-5.35221 0.38655,-0.62546 2.91962,-1.1372 5.62905,-1.1372 7.12701,0 6.791,-3.47134 -0.38627,-3.99063 -4.35104,-0.31481 -5.3125,-0.83682 -5.3125,-2.88437 0,-1.84677 0.95756,-2.86116 3.72987,-2.92374 5.30428,-0.11973 7.28628,-1.32073 10.625,-7.71917 3.84607,-7.37075 8.15212,-7.65527 14.21252,-9.39021 10.24924,-2.93411 25.99702,-2.20803 29.56836,1.36331 0,0 2.65424,1.35873 2.56407,2.56408 -0.21331,2.8514 -2.88858,5.17024 -2.88858,5.17024 -4.30894,6.39403 -8.21002,6.40374 -14.16111,2.35987 -2.6705,-1.81466 -6.15907,-3.29938 -7.75237,-3.29938 -5.17699,0 -14.43858,6.25085 -12.35247,8.33695 0.42709,0.4271 3.85476,-0.0991 7.61702,-1.16941 5.97557,-1.6999 7.03117,-1.71618 8.34861,-0.12877 2.22837,2.68502 -0.0238,4.28611 -8.38489,5.96102 -8.75782,1.75438 -11.44502,5.33816 -2.83772,3.78452 9.98951,-1.80313 11.71169,-1.51408 11.71169,1.96569 0,3.06653 -0.15786,3.11707 -8.4375,2.70136 -9.2494,-0.4644 -10.89002,0.96619 -4.74958,4.14154 6.3284,3.27254 11.51123,2.41859 20.09006,-3.31013 7.4379,-4.96684 7.89468,-5.10535 9.51745,-2.88609 4.34348,5.94007 0.0874,12.90801 -10.24577,16.77416 -8.17112,3.0572 -25.5594,3.52402 -30.44465,0.81734 z m 116.39499,-70.98818 c -2.13359,-2.13359 -1.85776,-4.77291 0.9863,-9.4375 1.87546,-3.07598 3.35487,-4.0625 6.09227,-4.0625 7.58942,0 8.53909,7.44524 1.54908,12.14455 -4.81304,3.23575 -6.48472,3.49838 -8.62765,1.35545 z"
       />
  </g>
</svg>
